<?xml version="1.0" ?>
<!-- Uploaded to: SVG Repo, www.svgrepo.com, Generator: SVG Repo Mixer Tools -->
<svg fill="#000000" width="800px" height="800px" viewBox="0 0 100 100" version="1.1" xml:space="preserve" xmlns="http://www.w3.org/2000/svg" xmlns:xlink="http://www.w3.org/1999/xlink">
<g id="news_updates">
<g>
<path d="M96,74V18c0-1.7-1.3-3-3-3H7c-1.7,0-3,1.3-3,3v56c0,1.7,1.3,3,3,3h1.2l-4,6.5c-0.2,0.3-0.2,0.7,0,1S4.6,85,5,85h6    c0.3,0,0.7-0.2,0.8-0.5l4.7-7.5h66.9l4.7,7.5c0.2,0.3,0.5,0.5,0.8,0.5h6c0.4,0,0.7-0.2,0.9-0.5s0.2-0.7,0-1l-4-6.5H93    C94.7,77,96,75.7,96,74z M6,74V18c0-0.6,0.4-1,1-1h86c0.6,0,1,0.4,1,1v56c0,0.6-0.4,1-1,1h-3h-6H16h-6H7C6.4,75,6,74.6,6,74z     M10.4,83H6.8l3.8-6h3.6L10.4,83z M93.2,83h-3.6l-3.8-6h3.6L93.2,83z"/>
<path d="M48,73h43c0.6,0,1-0.4,1-1V20c0-0.6-0.4-1-1-1H9c-0.6,0-1,0.4-1,1v52c0,0.6,0.4,1,1,1h7H48z M17,71V59h30v12H17z M32,40    c-3.3,0-6-2.7-6-6s2.7-6,6-6s6,2.7,6,6S35.3,40,32,40z M32,42c1.1,0,2.1-0.2,3.1-0.6c5.4,1.3,9.4,6.1,9.9,11.6H19    c0.4-5.5,4.4-10.3,9.9-11.6C29.9,41.8,30.9,42,32,42z M49,55v2h-1H16h-1v-2H49z M10,21h80v50H49V59h1c0.6,0,1-0.4,1-1v-4    c0-0.6-0.4-1-1-1h-3c-0.4-5.8-4.2-11-9.7-13c1.7-1.5,2.7-3.6,2.7-6c0-4.4-3.6-8-8-8s-8,3.6-8,8c0,2.4,1,4.5,2.7,6    c-5.4,2.1-9.3,7.2-9.7,13h-3c-0.6,0-1,0.4-1,1v4c0,0.6,0.4,1,1,1h1v12h-5V21z"/>
<path d="M52,50h34c0.6,0,1-0.4,1-1V25c0-0.6-0.4-1-1-1H52c-0.6,0-1,0.4-1,1v24C51,49.6,51.4,50,52,50z M53,26h32v22H53V26z"/>
<path d="M69,28c-5,0-9,4-9,9s4,9,9,9s9-4,9-9S74,28,69,28z M69,44c-3.9,0-7-3.1-7-7s3.1-7,7-7s7,3.1,7,7S72.9,44,69,44z"/>
<path d="M69,32c-0.6,0-1,0.4-1,1v4c0,0.6,0.4,1,1,1s1-0.4,1-1v-4C70,32.4,69.6,32,69,32z"/>
<path d="M69,39c-0.6,0-1,0.4-1,1v1c0,0.6,0.4,1,1,1s1-0.4,1-1v-1C70,39.4,69.6,39,69,39z"/>
</g>
</g>
<g id="newspaper"/>
<g id="fake_news"/>
<g id="secret_document"/>
<g id="interview"/>
<g id="reporter"/>
<g id="id_card"/>
<g id="camera"/>
<g id="television"/>
<g id="crime_scane"/>
<g id="note"/>
<g id="recorder"/>
<g id="station_television"/>
<g id="file_storage"/>
<g id="news_anchor"/>
<g id="trending_news"/>
<g id="world_news"/>
<g id="document"/>
<g id="radio"/>
<g id="video_recorder"/>
</svg>